<svg preserveAspectRatio="none" width="100%" height="100%" overflow="visible" style="display: block;" viewBox="0 0 30 30" fill="none" xmlns="http://www.w3.org/2000/svg">
<g id="emojione:party-popper">
<path id="Vector" d="M0.9375 28.5938L4.96875 27.1875L1.92187 25.7812L0.9375 28.5938Z" fill="var(--fill-0, #F7B600)"/>
<path id="Vector_2" d="M12.6094 17.0625L6.9375 11.3438L6 13.9687L12.6094 17.0625Z" fill="var(--fill-0, #FFDD7D)"/>
<path id="Vector_3" d="M6 13.9688L4.96875 16.9219L17.5313 22.7813L18.1406 22.5938L12.6094 17.0625L6 13.9688Z" fill="var(--fill-0, #F7B600)"/>
<path id="Vector_4" d="M3.98438 19.875L13.3594 24.2344L17.5313 22.7812L4.96875 16.9219L3.98438 19.875Z" fill="var(--fill-0, #FFDD7D)"/>
<path id="Vector_5" d="M2.95312 22.8281L9.14062 25.7344L13.3594 24.2344L3.98437 19.875L2.95312 22.8281Z" fill="var(--fill-0, #F7B600)"/>
<path id="Vector_6" d="M2.95313 22.8281L1.92188 25.7812L4.96875 27.1875L9.14062 25.7344L2.95313 22.8281Z" fill="var(--fill-0, #FFDD7D)"/>
<path id="Vector_7" d="M14.9531 14.625C18.0938 17.7188 19.7344 21.1875 18.6094 22.3125C17.4375 23.4375 13.9688 21.8438 10.7812 18.7031C7.64063 15.6094 6 12.1406 7.125 11.0156C8.29687 9.89063 11.7656 11.5313 14.9531 14.625Z" fill="var(--fill-0, #493816)"/>
<path id="Vector_8" d="M11.0156 6.79688C10.2656 5.71875 11.0625 5.25 12.0937 5.4375C11.1094 4.26563 11.7187 3.42188 13.2656 3.75C13.7344 3.84375 13.0781 4.64062 12.6562 4.64062C13.9219 5.57812 13.2187 6.60938 11.8594 6.375C13.0781 8.01563 11.0156 7.59375 10.0781 7.6875C9.84375 8.90625 11.25 10.3125 10.7812 10.3125C9.75 10.3125 8.0625 6.42188 11.0156 6.79688Z" fill="var(--fill-0, #42ADE2)"/>
<path id="Vector_9" d="M20.8594 9.04687C20.1562 9.375 18.1875 6.28125 20.625 6.23438C19.2187 4.96875 19.4063 4.35937 21.2813 4.3125C19.125 2.15625 22.5469 1.40625 22.875 2.53125C22.9687 2.85937 21.8437 2.25 21.4687 2.85937C21.0469 3.5625 24.0938 5.39062 20.9531 5.25C22.125 6.42187 22.1719 6.98437 20.3438 7.17188C20.5781 7.54688 21.3281 8.85937 20.8594 9.04687Z" fill="var(--fill-0, #FF8736)"/>
<path id="Vector_10" d="M21.6562 16.3594L22.3594 15.75C22.3594 15.75 23.0156 16.7344 23.4844 17.1094C23.8594 15.4219 23.7656 14.4375 25.6875 15.5625C24.6094 12.6563 26.3906 13.7344 28.125 14.5312C28.0312 13.7812 28.125 13.875 28.875 13.6406C29.5312 16.125 27.75 15.375 26.3438 14.5781C27.1875 16.8281 26.2969 16.6875 24.5156 15.9375C24.4687 16.875 24.1875 17.9531 23.625 18.0469C22.9688 18.2344 21.6562 16.3594 21.6562 16.3594Z" fill="var(--fill-0, #ED4C5C)"/>
<path id="Vector_11" d="M16.4062 9.42188C15.5625 10.5469 14.2031 11.1562 13.2188 12.1406C12.1875 13.1719 11.5781 15.9844 11.5781 15.9844C11.5781 15.9844 11.9531 13.0312 12.9375 11.9062C13.8281 10.875 15.1406 10.125 15.8437 8.95313C17.0625 6.79688 15.9375 3.98438 14.3437 2.34375C14.6719 2.0625 15.1406 1.6875 15.375 1.40625C16.9219 3.32812 18.2344 7.03125 16.4062 9.42188Z" fill="var(--fill-0, #C28FEF)"/>
<path id="Vector_12" d="M17.8594 11.8125C16.6406 12.7031 15.75 14.0156 14.9062 15.2344C14.1562 16.3125 11.7656 17.6719 11.7656 17.6719C11.7656 17.6719 14.0156 16.125 14.7187 15C15.5625 13.5938 16.4062 12.1406 17.7187 11.1094C20.3437 9.09375 24.1406 9.28125 27.0937 10.3594C26.9062 10.7813 26.5781 11.6719 26.5781 11.6719C26.5781 11.6719 20.3437 9.98438 17.8594 11.8125Z" fill="var(--fill-0, #FF8736)"/>
<path id="Vector_13" d="M23.0625 11.5781C22.2656 12.6094 21.8906 13.875 21.2813 15.0469C20.7188 16.125 19.9688 17.1562 18.8906 17.7187C17.6719 18.3281 15 18.1406 15 18.1406C15 18.1406 17.6719 18.0937 18.7969 17.3437C19.9219 16.5937 20.5313 15.2812 20.9531 14.0625C21.7969 11.7187 22.8281 9.1875 25.2656 8.15625C25.4063 8.57812 25.7344 9.46875 25.7344 9.46875C25.7344 9.46875 24.375 9.84375 23.0625 11.5781ZM1.50469 6.71484L2.83031 5.38875L4.15641 6.71438L2.83078 8.04094L1.50469 6.71484Z" fill="var(--fill-0, #42ADE2)"/>
<path id="Vector_14" d="M3.36234 10.8736L4.6875 9.54797L6.01313 10.8736L4.6875 12.1992L3.36234 10.8736Z" fill="var(--fill-0, #FF8736)"/>
<path id="Vector_15" d="M6.73031 4.60406L8.05594 3.27844L9.38156 4.60406L8.05594 5.92969L6.73031 4.60406Z" fill="var(--fill-0, #ED4C5C)"/>
<path id="Vector_16" d="M21.1898 20.4825L22.5155 19.1564L23.8411 20.4825L22.5155 21.8081L21.1898 20.4825Z" fill="var(--fill-0, #C28FEF)"/>
<path id="Vector_17" d="M18.2358 25.0266L19.5614 23.7009L20.8875 25.027L19.5614 26.3527L18.2358 25.0266Z" fill="var(--fill-0, #ED4C5C)"/>
<path id="Vector_18" d="M24.037 26.0658L25.3627 24.7397L26.6883 26.0658L25.3627 27.3914L24.037 26.0658Z" fill="var(--fill-0, #FF8736)"/>
<path id="Vector_19" d="M25.3491 20.0302L26.6747 18.7045L28.0003 20.0302L26.6747 21.3563L25.3491 20.0302ZM23.1356 6.01078L24.4612 4.68469L25.7873 6.01078L24.4617 7.33641L23.1356 6.01078Z" fill="var(--fill-0, #42ADE2)"/>
<path id="Vector_20" d="M8.92688 13.965L10.253 12.6394L11.5786 13.965L10.253 15.2911L8.92688 13.965Z" fill="var(--fill-0, #ED4C5C)"/>
</g>
</svg>
