<svg width="26" height="26" viewBox="0 0 26 26" fill="none" xmlns="http://www.w3.org/2000/svg">
<path fill-rule="evenodd" clip-rule="evenodd" d="M6.77079 5.95833C6.77079 5.26198 6.97729 4.58126 7.36416 4.00226C7.75103 3.42327 8.30091 2.97199 8.94426 2.70551C9.58761 2.43903 10.2955 2.3693 10.9785 2.50515C11.6615 2.64101 12.2888 2.97633 12.7812 3.46873C13.2736 3.96113 13.609 4.58848 13.7448 5.27145C13.8807 5.95443 13.8109 6.66235 13.5445 7.3057C13.278 7.94905 12.8267 8.49893 12.2477 8.8858C11.6687 9.27268 10.988 9.47917 10.2916 9.47917H3.24996C3.03447 9.47917 2.82781 9.39357 2.67543 9.24119C2.52306 9.08882 2.43746 8.88216 2.43746 8.66667C2.43746 8.45118 2.52306 8.24452 2.67543 8.09214C2.82781 7.93977 3.03447 7.85417 3.24996 7.85417H10.2916C10.6666 7.85417 11.0331 7.74298 11.3449 7.53466C11.6567 7.32635 11.8997 7.03026 12.0431 6.68384C12.1866 6.33742 12.2242 5.95623 12.151 5.58848C12.0779 5.22072 11.8973 4.88292 11.6322 4.61778C11.367 4.35264 11.0292 4.17208 10.6615 4.09893C10.2937 4.02578 9.91254 4.06332 9.56612 4.20681C9.2197 4.3503 8.92361 4.5933 8.7153 4.90507C8.50698 5.21683 8.39579 5.58337 8.39579 5.95833V6.34508C8.39579 6.56057 8.31019 6.76724 8.15782 6.91961C8.00544 7.07198 7.79878 7.15759 7.58329 7.15759C7.3678 7.15759 7.16114 7.07198 7.00877 6.91961C6.85639 6.76724 6.77079 6.56057 6.77079 6.34508V5.95833ZM15.4375 8.125C15.4375 7.21438 15.7075 6.32421 16.2134 5.56706C16.7193 4.80991 17.4384 4.21978 18.2797 3.87131C19.121 3.52283 20.0467 3.43165 20.9399 3.6093C21.833 3.78696 22.6534 4.22546 23.2973 4.86936C23.9412 5.51327 24.3797 6.33365 24.5573 7.22677C24.735 8.11989 24.6438 9.04564 24.2953 9.88694C23.9468 10.7282 23.3567 11.4473 22.5996 11.9532C21.8424 12.4591 20.9522 12.7292 20.0416 12.7292H2.16663C1.95114 12.7292 1.74448 12.6436 1.5921 12.4912C1.43973 12.3388 1.35413 12.1322 1.35413 11.9167C1.35413 11.7012 1.43973 11.4945 1.5921 11.3421C1.74448 11.1898 1.95114 11.1042 2.16663 11.1042H20.0416C20.6308 11.1042 21.2068 10.9294 21.6968 10.6021C22.1867 10.2747 22.5685 9.80945 22.794 9.26508C23.0195 8.72071 23.0785 8.1217 22.9635 7.5438C22.8486 6.96589 22.5649 6.43506 22.1482 6.01841C21.7316 5.60177 21.2007 5.31803 20.6228 5.20308C20.0449 5.08813 19.4459 5.14712 18.9015 5.37261C18.3572 5.5981 17.8919 5.97994 17.5645 6.46987C17.2372 6.95979 17.0625 7.53578 17.0625 8.125V8.66667C17.0625 8.88216 16.9769 9.08882 16.8245 9.24119C16.6721 9.39357 16.4654 9.47917 16.25 9.47917C16.0345 9.47917 15.8278 9.39357 15.6754 9.24119C15.5231 9.08882 15.4375 8.88216 15.4375 8.66667V8.125ZM3.52079 15.1667C3.52079 14.9512 3.60639 14.7445 3.75877 14.5921C3.91114 14.4398 4.1178 14.3542 4.33329 14.3542H20.0416C20.9522 14.3542 21.8424 14.6242 22.5996 15.1301C23.3567 15.636 23.9468 16.3551 24.2953 17.1964C24.6438 18.0377 24.735 18.9634 24.5573 19.8566C24.3797 20.7497 23.9412 21.5701 23.2973 22.214C22.6534 22.8579 21.833 23.2964 20.9399 23.474C20.0467 23.6517 19.121 23.5605 18.2797 23.212C17.4384 22.8636 16.7193 22.2734 16.2134 21.5163C15.7075 20.7591 15.4375 19.869 15.4375 18.9583V18.4167C15.4375 18.2012 15.5231 17.9945 15.6754 17.8421C15.8278 17.6898 16.0345 17.6042 16.25 17.6042C16.4654 17.6042 16.6721 17.6898 16.8245 17.8421C16.9769 17.9945 17.0625 18.2012 17.0625 18.4167V18.9583C17.0625 19.5476 17.2372 20.1236 17.5645 20.6135C17.8919 21.1034 18.3572 21.4852 18.9015 21.7107C19.4459 21.9362 20.0449 21.9952 20.6228 21.8803C21.2007 21.7653 21.7316 21.4816 22.1482 21.0649C22.5649 20.6483 22.8486 20.1174 22.9635 19.5395C23.0785 18.9616 23.0195 18.3626 22.794 17.8183C22.5685 17.2739 22.1867 16.8086 21.6968 16.4812C21.2068 16.1539 20.6308 15.9792 20.0416 15.9792H4.33329C4.1178 15.9792 3.91114 15.8936 3.75877 15.7412C3.60639 15.5888 3.52079 15.3822 3.52079 15.1667Z" fill="#D9C8C8"/>
</svg>
