<svg width="26" height="26" viewBox="0 0 26 26" fill="none" xmlns="http://www.w3.org/2000/svg">
<path d="M23.6817 13.5416C22.8993 12.618 21.7881 12.0352 20.5834 11.9166C20.5834 9.80415 19.8467 8.01665 18.3734 6.54331C16.9 5.06998 15.1125 4.33331 13 4.33331C11.2884 4.33331 9.75004 4.84248 8.39587 5.88248C7.04171 6.92248 6.14254 8.25498 5.68754 9.91248C4.33337 10.2158 3.20671 10.92 2.35087 12.025C1.49504 13.13 1.08337 14.3866 1.08337 15.795C1.08337 17.4308 1.66837 18.8283 2.82754 19.9658C3.99754 21.125 5.41671 21.6666 7.04171 21.6666H20.0417C21.3959 21.6666 22.5442 21.19 23.4975 20.2475C24.44 19.2941 24.9167 18.1458 24.9167 16.7916C24.9167 15.5458 24.505 14.4625 23.6817 13.5416ZM21.9592 18.7091C21.4392 19.24 20.8 19.5 20.0417 19.5H7.04171C5.99087 19.5 5.10254 19.1316 4.36587 18.4166C3.61837 17.6475 3.25004 16.7591 3.25004 15.7083C3.25004 14.6575 3.61837 13.7691 4.36587 13.0325C5.10254 12.285 5.99087 11.9166 7.04171 11.9166H7.58337C7.58337 10.4216 8.12504 9.14331 9.16504 8.08165C10.2267 7.04165 11.505 6.49998 13 6.49998C14.495 6.49998 15.7734 7.04165 16.835 8.08165C17.875 9.14331 18.4167 10.4216 18.4167 11.9166V14.0833H20.0417C20.8 14.0833 21.4392 14.3433 21.9592 14.8741C22.4792 15.405 22.75 16.0333 22.75 16.7916C22.75 17.55 22.49 18.1891 21.9592 18.7091ZM8.69921 11.3208C8.69921 10.4758 9.39254 9.78248 10.2375 9.78248C11.0825 9.78248 11.7759 10.4758 11.7759 11.3208C11.7759 12.1658 11.0825 12.8591 10.2375 12.8591C9.39254 12.8591 8.69921 12.1658 8.69921 11.3208ZM17.3009 16.8458C17.3009 17.6908 16.6075 18.3841 15.7625 18.3841C14.9175 18.3841 14.2242 17.6908 14.2242 16.8458C14.2242 16.0008 14.9175 15.3075 15.7625 15.3075C16.6075 15.3075 17.3009 16.0008 17.3009 16.8458ZM16.0334 9.74998L17.3334 11.05L9.96671 18.4166L8.66671 17.1166L16.0334 9.74998Z" fill="#FF9E9E"/>
</svg>
