<svg preserveAspectRatio="none" width="100%" height="100%" overflow="visible" style="display: block;" viewBox="0 0 26.25 19.6877" fill="none" xmlns="http://www.w3.org/2000/svg">
<g id="Group">
<path id="Vector" d="M0.0656249 8.98422C0.421875 12.8748 4.02188 15.9405 8.44688 15.9405H17.8031C22.2188 15.9405 25.8281 12.8748 26.1844 8.98422H0.0656249Z" fill="var(--fill-0, #FF822D)"/>
<path id="Vector_2" d="M26.2219 8.35609C26.2219 7.92484 25.8562 7.58734 25.3875 7.53109C25.3219 7.53109 25.2563 7.51234 25.1813 7.52172C23.7563 7.67172 22.3031 7.78422 20.8312 7.87797C15.7406 8.20609 10.4719 8.20609 5.38125 7.87797C3.91875 7.78422 2.45625 7.67172 1.03125 7.52172C0.95625 7.51234 0.890625 7.53109 0.825 7.53109C0.365625 7.57797 0 7.92484 0 8.35609C0 8.44984 0.00937498 8.53422 0.01875 8.62797C0.028125 8.74984 0.0374999 8.86234 0.0562499 8.97484C8.45625 9.91234 17.7656 9.91234 26.1656 8.97484C26.175 8.86234 26.1938 8.74047 26.2031 8.62797C26.2125 8.54359 26.2219 8.44984 26.2219 8.35609Z" fill="var(--fill-0, black)"/>
<path id="Vector_3" d="M22.1794 0.738904L22.5 1.05297C22.7344 1.27797 22.6312 1.68109 22.3125 1.76547L22.1062 1.82172C21.8998 1.87914 21.6808 1.8726 21.4781 1.80297L11.025 12.4155C11.2423 12.7722 11.3336 13.1914 11.2843 13.6062C11.235 14.0209 11.048 14.4071 10.7531 14.703L6.15 19.3717C6.0635 19.4607 5.96002 19.5315 5.84569 19.5798C5.73136 19.6281 5.6085 19.653 5.48437 19.653C5.36025 19.653 5.23739 19.6281 5.12306 19.5798C5.00873 19.5315 4.90525 19.4607 4.81875 19.3717L3.4875 18.0686C3.39901 17.9821 3.32854 17.8789 3.28013 17.765C3.23173 17.651 3.20636 17.5287 3.20549 17.4049C3.20462 17.2812 3.22826 17.1584 3.27506 17.0439C3.32185 16.9293 3.39087 16.8251 3.47813 16.7373L8.08125 12.0686C8.37411 11.77 8.75858 11.5783 9.17323 11.5239C9.58789 11.4695 10.0088 11.5557 10.3688 11.7686L20.8219 1.15609C20.7495 0.954291 20.74 0.735268 20.7947 0.527966L20.8509 0.321717C20.9259 0.0029666 21.3197 -0.109533 21.5541 0.124842L21.8691 0.432342C21.9418 0.45424 22.0082 0.493501 22.0624 0.546742C22.1166 0.599984 22.1571 0.66561 22.1803 0.737966" fill="var(--fill-0, #F3AD61)"/>
<path id="Vector_4" d="M26.25 13.1252C24.6094 13.1252 24.6094 14.3505 22.9603 14.3505C21.3197 14.3505 21.3197 13.1252 19.6716 13.1252C18.0309 13.1252 18.0309 14.3505 16.3903 14.3505C14.7497 14.3505 14.7516 13.1252 13.1119 13.1252C11.4722 13.1252 11.4713 14.3505 9.83156 14.3505C8.19188 14.3505 8.19 13.1252 6.55125 13.1252C4.91062 13.1252 4.91063 14.3505 3.27938 14.3505C1.64063 14.3505 1.64062 13.1252 0 13.1252V19.6877H26.2406L26.25 13.1252Z" fill="var(--fill-0, #00A6ED)"/>
</g>
</svg>
