<svg preserveAspectRatio="none" width="100%" height="100%" overflow="visible" style="display: block;" viewBox="0 0 30 30" fill="none" xmlns="http://www.w3.org/2000/svg">
<g id="mdi:run">
<path id="Vector" d="M16.875 6.875C18.2375 6.875 19.375 5.725 19.375 4.375C19.375 3.71196 19.1116 3.07607 18.6428 2.60723C18.1739 2.13839 17.538 1.875 16.875 1.875C15.4875 1.875 14.375 2.975 14.375 4.375C14.375 5.725 15.4875 6.875 16.875 6.875ZM12.3625 24.225L13.6125 18.75L16.25 21.25V28.75H18.75V19.375L16.1125 16.875L16.875 13.125C17.7315 14.1064 18.7882 14.8931 19.974 15.4321C21.1599 15.9711 22.4474 16.25 23.75 16.25V13.75C21.3625 13.75 19.375 12.5 18.3625 10.725L17.1125 8.75C16.6125 7.975 15.8625 7.5 15 7.5C14.6125 7.5 14.375 7.6 13.9875 7.6L7.5 10.35V16.25H10V11.975L12.2375 11.1L10.2375 21.25L4.1125 20L3.6125 22.5L12.3625 24.225Z" fill="var(--fill-0, #DDB130)"/>
</g>
</svg>
