<svg preserveAspectRatio="none" width="100%" height="100%" overflow="visible" style="display: block;" viewBox="0 0 28 28" fill="none" xmlns="http://www.w3.org/2000/svg">
<g id="twemoji:man-running">
<path id="Vector" d="M11.7343 19.3324L10.3903 16.5379C10.0574 16.7191 8.63489 17.5124 7.78478 18.2778C7.29089 18.7227 7.35778 19.0571 7.50478 19.7898L7.518 19.8559C7.665 20.5963 9.233 25.5733 9.43911 26.2236L10.4852 25.9638C10.4938 25.6169 10.5296 23.8117 10.3483 22.6714C10.2916 22.3113 10.234 21.8742 10.1819 21.4877C10.1428 21.1631 10.0961 20.8394 10.0419 20.517C9.99211 20.2572 10.0676 20.1048 10.304 19.9904C10.7768 19.7627 11.2537 19.5433 11.7343 19.3324ZM18.5173 20.7457C18.0927 20.6936 17.7248 20.6477 17.5389 20.636C17.2752 20.6197 17.1469 20.5077 17.0956 20.2502C16.9928 19.7354 16.9005 19.2186 16.8187 18.7001L13.776 19.2967C13.8678 19.6646 14.2769 21.2411 14.8042 22.2569C15.1099 22.8457 15.4506 22.8651 16.1964 22.9087L16.2641 22.9126C17.0224 22.9569 22.2289 22.6917 22.9102 22.6567L22.9219 21.5794C22.5874 21.483 20.8507 20.9946 19.7003 20.8826C19.3387 20.8476 18.9023 20.7931 18.5173 20.7457Z" fill="var(--fill-0, #FFDC5D)"/>
<path id="Vector_2" d="M21.6261 23.086L21.4877 22.8309C21.4837 22.8212 21.4817 22.8108 21.4818 22.8003C21.4819 22.7899 21.4842 22.7795 21.4884 22.77C21.4926 22.7604 21.4987 22.7517 21.5063 22.7446C21.5139 22.7374 21.5229 22.7318 21.5328 22.7282C21.6658 22.6823 21.9357 22.5594 22.0298 22.5097C21.9481 22.6963 21.8548 22.995 21.7506 23.0852C21.7101 23.1187 21.6463 23.1342 21.6261 23.086Z" fill="var(--fill-0, #8899A6)"/>
<path id="Vector_3" d="M23.6429 21.1073C23.5348 21.021 23.2874 20.9782 23.1319 20.9634C22.925 20.9495 22.7175 20.9475 22.5104 20.9572C22.4176 20.9601 22.3252 20.9713 22.2343 20.9907C22.134 21.0132 22.0436 21.0671 21.9761 21.1447C21.9318 21.1983 21.9279 21.2567 21.938 21.2854C21.9784 21.4044 22.1744 21.6106 22.26 21.8066C22.2886 21.8653 22.302 21.9303 22.2989 21.9956C22.2779 22.2102 22.0041 22.5229 21.7988 22.7547C21.6759 22.8939 21.5771 23.0036 21.5732 23.0463C21.57 23.0893 21.58 23.1322 21.602 23.1692V23.1708C21.658 23.2734 21.7801 23.38 21.8641 23.66C21.9178 23.8404 22.1713 24.6641 22.1713 24.6641C22.232 24.8741 22.3129 24.9254 22.3471 25.0382C22.4179 25.2692 22.5423 25.8891 22.6046 26.0851C22.6668 26.2811 22.8153 26.3651 22.9297 26.3814C23.044 26.3978 23.1101 26.3706 23.1101 26.3706C23.1101 26.3706 23.3784 26.25 23.5566 25.2436C23.6849 24.5163 23.5713 24.4043 23.4749 23.3123C23.3784 22.2203 23.6429 21.1073 23.6429 21.1073Z" fill="var(--fill-0, #1C6399)"/>
<path id="Vector_4" d="M23.4181 22.7313C23.2353 22.6567 22.8184 22.3813 22.701 22.085C22.5952 21.8174 22.5229 21.0949 22.5097 20.958C22.7337 20.9378 23.0782 20.9526 23.1887 20.9634C23.3349 20.9774 23.5029 20.9891 23.604 21.0747L23.6429 21.1081C23.6429 21.1081 23.4648 22.2538 23.4181 22.7313Z" fill="var(--fill-0, #3B94D9)"/>
<path id="Vector_5" d="M21.8151 23.5433C21.7865 23.5437 21.7584 23.5357 21.7343 23.5204C21.7101 23.505 21.6909 23.483 21.679 23.457C21.6705 23.4391 21.6655 23.4198 21.6645 23.4C21.6635 23.3802 21.6664 23.3604 21.673 23.3418C21.6797 23.3231 21.6899 23.306 21.7032 23.2913C21.7166 23.2766 21.7326 23.2648 21.7506 23.2563L22.0166 23.1303C22.0528 23.1132 22.0943 23.1112 22.132 23.1246C22.1698 23.138 22.2007 23.1658 22.218 23.2019C22.2266 23.2198 22.2315 23.2391 22.2325 23.2589C22.2335 23.2787 22.2306 23.2985 22.224 23.3171C22.2173 23.3358 22.2071 23.3529 22.1938 23.3676C22.1804 23.3822 22.1644 23.3941 22.1464 23.4026L21.8804 23.5286C21.86 23.5382 21.8377 23.5432 21.8151 23.5433ZM21.9847 24.0294C21.9528 24.0288 21.9219 24.0184 21.8962 23.9996C21.8705 23.9808 21.8511 23.9546 21.8408 23.9244C21.8288 23.8863 21.8324 23.8449 21.8507 23.8094C21.8691 23.7738 21.9007 23.747 21.9388 23.7347L22.2343 23.6406C22.2725 23.6285 22.3139 23.6321 22.3494 23.6505C22.3849 23.669 22.4117 23.7008 22.4237 23.7389C22.4358 23.7771 22.4322 23.8185 22.4138 23.854C22.3953 23.8895 22.3635 23.9163 22.3253 23.9283L22.0298 24.0224C22.0152 24.027 22 24.0293 21.9847 24.0294ZM22.1278 24.5249C22.0887 24.5278 22.0501 24.5152 22.0202 24.49C21.9902 24.4648 21.9713 24.4289 21.9674 24.39C21.9636 24.351 21.9751 24.3121 21.9995 24.2815C22.0239 24.2509 22.0594 24.2311 22.0982 24.2262L22.3751 24.1702C22.3946 24.1658 22.4148 24.1654 22.4344 24.169C22.4541 24.1726 22.4728 24.1802 22.4895 24.1912C22.5061 24.2023 22.5203 24.2166 22.5313 24.2333C22.5423 24.25 22.5497 24.2688 22.5532 24.2884C22.5572 24.3079 22.5573 24.328 22.5535 24.3475C22.5497 24.3669 22.5421 24.3855 22.5311 24.402C22.5201 24.4186 22.506 24.4328 22.4895 24.4439C22.473 24.455 22.4545 24.4627 22.435 24.4666L22.1581 24.5226L22.1278 24.5249ZM24.2869 21.3127C24.2822 21.2909 24.2659 21.2061 24.2083 21.1027C24.1889 21.0677 24.1446 21.0568 24.0994 21.0513C24.0434 21.0443 23.6328 20.9852 23.625 21.0684C23.625 21.0684 23.6227 21.1921 23.5651 21.2769C23.5068 21.3617 23.4663 21.5701 23.4516 21.7257C23.4368 21.8812 23.3699 22.4653 23.3854 22.8752C23.401 23.2859 23.5278 24.0279 23.5332 24.2752C23.5387 24.5226 23.5332 24.9083 23.4803 25.193C23.4274 25.4777 23.3714 25.7312 23.3279 25.8876C23.2851 26.0598 23.2115 26.2228 23.1109 26.369C23.1109 26.369 23.4352 26.3472 23.6833 25.8673C23.8793 25.4886 23.989 25.1246 24.0302 24.7699C24.0333 24.7427 24.1181 23.7961 24.1586 23.3232C24.1881 22.9771 24.2379 22.4249 24.2379 22.4249C24.3009 21.7708 24.3157 21.4379 24.2869 21.3127Z" fill="var(--fill-0, #CCD6DD)"/>
<path id="Vector_6" d="M8.71967 25.109L8.92889 24.9076C8.93718 24.9011 8.94669 24.8964 8.95684 24.8937C8.967 24.891 8.9776 24.8904 8.98799 24.892C8.99838 24.8935 9.00836 24.8971 9.01732 24.9026C9.02628 24.9081 9.03403 24.9153 9.04011 24.9239C9.11944 25.0398 9.31078 25.2669 9.38311 25.3447C9.18089 25.3159 8.869 25.305 8.75389 25.2288C8.71033 25.1992 8.67922 25.1417 8.71967 25.109Z" fill="var(--fill-0, #8899A6)"/>
<path id="Vector_7" d="M11.165 26.5253C11.2194 26.3986 11.1946 26.1481 11.1673 25.9941C11.1254 25.7911 11.0719 25.5906 11.0071 25.3937C10.9796 25.3051 10.9442 25.2192 10.9013 25.137C10.8173 25.0001 10.7364 24.9527 10.6836 24.9293C10.6198 24.9013 10.563 24.9122 10.5373 24.9301C10.4331 25.0009 10.2869 25.2451 10.1212 25.3797C10.0724 25.4228 10.0136 25.4531 9.95011 25.4676C9.73778 25.5049 9.36289 25.3244 9.08522 25.1883C8.91878 25.1067 8.78578 25.0413 8.74456 25.0483C8.70212 25.0566 8.66328 25.0778 8.63333 25.109L8.63178 25.1098H8.63256C8.54856 25.1907 8.47778 25.3377 8.23122 25.4924C8.071 25.592 7.34456 26.0556 7.34456 26.0556C7.15789 26.1699 7.13067 26.2617 7.03111 26.3247C6.82733 26.4546 6.26344 26.74 6.09078 26.852C6.04421 26.8795 6.00361 26.916 5.97132 26.9594C5.93904 27.0028 5.91574 27.0522 5.90278 27.1047C5.88981 27.1572 5.88745 27.2118 5.89583 27.2652C5.9042 27.3186 5.92315 27.3699 5.95156 27.4159C5.95156 27.4159 6.13978 27.6422 7.15633 27.545C7.89133 27.475 7.96911 27.3358 8.99578 26.9516C10.0224 26.5681 11.165 26.5253 11.165 26.5253Z" fill="var(--fill-0, #1C6399)"/>
<path id="Vector_8" d="M9.54022 26.7416C9.56356 26.5456 9.71756 26.0703 9.97189 25.8782C10.2013 25.7056 10.8788 25.4427 11.0071 25.3929C11.0864 25.6037 11.1642 25.9397 11.1829 26.0486C11.2086 26.1932 11.242 26.3581 11.186 26.4787L11.1642 26.5246C11.165 26.5253 10.0123 26.6591 9.54022 26.7416Z" fill="var(--fill-0, #3B94D9)"/>
<path id="Vector_9" d="M8.66756 25.7468C8.64592 25.7465 8.62458 25.7418 8.60489 25.7328C8.58521 25.7238 8.56761 25.7108 8.55322 25.6947L8.36111 25.4714C8.33889 25.4407 8.32901 25.4027 8.33342 25.365C8.33782 25.3273 8.35619 25.2927 8.38491 25.2679C8.41362 25.2431 8.45059 25.2299 8.48851 25.231C8.52644 25.2322 8.56257 25.2474 8.58978 25.2739L8.78189 25.4971C8.8005 25.5191 8.81247 25.5459 8.8164 25.5745C8.82032 25.603 8.81603 25.6321 8.80404 25.6583C8.79204 25.6845 8.77284 25.7067 8.74867 25.7224C8.7245 25.738 8.69636 25.7465 8.66756 25.7468ZM8.22033 26.0773C8.19525 26.077 8.17062 26.0706 8.14854 26.0587C8.12647 26.0468 8.1076 26.0297 8.09356 26.0089L7.924 25.7491C7.90459 25.7155 7.89879 25.6758 7.90778 25.6381C7.91678 25.6003 7.93989 25.5675 7.97236 25.5463C8.00483 25.525 8.0442 25.5171 8.08236 25.524C8.12053 25.5309 8.1546 25.5522 8.17756 25.5834L8.34711 25.8432C8.36192 25.8661 8.37029 25.8925 8.37136 25.9197C8.37243 25.9469 8.36615 25.9739 8.35318 25.9979C8.34021 26.0218 8.32103 26.0419 8.29765 26.0558C8.27428 26.0698 8.24757 26.0772 8.22033 26.0773ZM7.74044 26.3394C7.7127 26.339 7.6856 26.331 7.66194 26.3166C7.63828 26.3021 7.61893 26.2815 7.60589 26.257L7.47756 26.005C7.46857 25.9873 7.46315 25.9681 7.46161 25.9483C7.46006 25.9285 7.46243 25.9087 7.46857 25.8898C7.47471 25.871 7.4845 25.8535 7.49738 25.8384C7.51027 25.8234 7.526 25.811 7.54367 25.802C7.56134 25.793 7.5806 25.7876 7.60037 25.786C7.62013 25.7845 7.64001 25.7869 7.65886 25.793C7.67771 25.7992 7.69517 25.8089 7.71023 25.8218C7.7253 25.8347 7.73768 25.8504 7.74667 25.8681L7.875 26.1201C7.88648 26.1431 7.89192 26.1687 7.89079 26.1944C7.88966 26.2202 7.882 26.2452 7.86855 26.2671C7.85509 26.289 7.83627 26.3072 7.81386 26.3198C7.79145 26.3325 7.76618 26.3392 7.74044 26.3394ZM11.1386 27.2012C11.1588 27.1903 11.2358 27.153 11.3206 27.069C11.3486 27.041 11.3478 26.9951 11.3408 26.95C11.333 26.894 11.2801 26.4826 11.1977 26.4973C11.1977 26.4973 11.0779 26.5284 10.9807 26.495C10.8834 26.4616 10.6711 26.4787 10.5179 26.5051C10.3647 26.5323 9.78367 26.6233 9.39244 26.7478C9.00122 26.8722 8.31989 27.1919 8.08267 27.2642C7.84544 27.3358 7.47289 27.433 7.18356 27.4579C6.89422 27.4828 6.63522 27.4968 6.47344 27.496C6.29608 27.5008 6.1193 27.4737 5.95156 27.4159C5.95156 27.4159 6.05889 27.7223 6.58778 27.8336C6.96555 27.917 7.35534 27.9309 7.73811 27.8748C7.76456 27.8709 8.70022 27.6998 9.16611 27.6127C9.50756 27.5489 10.0528 27.4493 10.0528 27.4493C10.7007 27.3358 11.025 27.2619 11.1386 27.2012Z" fill="var(--fill-0, #CCD6DD)"/>
<path id="Vector_10" d="M9.842 16.5231C10.4261 16.2136 12.3581 15.2374 13.6897 15.12C13.749 15.1164 13.8079 15.1323 13.8573 15.1653C13.9067 15.1983 13.944 15.2466 13.9634 15.3028L14.9963 18.13C15.0093 18.164 15.0152 18.2003 15.0137 18.2366C15.0122 18.273 15.0033 18.3086 14.9876 18.3414C14.9719 18.3742 14.9497 18.4035 14.9223 18.4275C14.8949 18.4514 14.8629 18.4696 14.8283 18.4808C14.2209 18.6752 12.6972 19.1924 11.5461 19.8178C11.4883 19.8502 11.4204 19.8598 11.3558 19.8445C11.2913 19.8292 11.2348 19.7903 11.1977 19.7353C10.843 19.2189 9.92056 17.8088 9.702 16.8109C9.69068 16.7542 9.69824 16.6954 9.72353 16.6434C9.74881 16.5914 9.79042 16.5492 9.842 16.5231Z" fill="var(--fill-0, #1C6399)"/>
<path id="Vector_11" d="M13.622 19.824C13.4696 19.1808 13.0114 17.0652 13.2323 15.7469C13.2439 15.6886 13.2741 15.6358 13.3185 15.5963C13.3629 15.5568 13.4189 15.533 13.4781 15.5283L16.4749 15.2406C16.5111 15.2366 16.5477 15.24 16.5825 15.2507C16.6173 15.2613 16.6496 15.2789 16.6774 15.3024C16.7052 15.3259 16.7279 15.3548 16.7442 15.3874C16.7604 15.4199 16.7699 15.4554 16.772 15.4918C16.8078 16.128 16.9244 17.7333 17.2394 19.005C17.2563 19.0692 17.2484 19.1374 17.2172 19.1961C17.1861 19.2547 17.1341 19.2995 17.0714 19.3216C16.4819 19.5347 14.8851 20.0721 13.8647 20.0324C13.807 20.029 13.7521 20.0067 13.7082 19.9691C13.6644 19.9314 13.6341 19.8805 13.622 19.824Z" fill="var(--fill-0, #357BAA)"/>
<path id="Vector_12" d="M11.6783 8.25844C11.6122 8.73444 11.7172 9.46089 12.8186 9.64833C13.9199 9.83578 15.0057 9.69422 15.4716 9.56433C15.9374 9.43444 15.9141 10.2519 16.0526 11.0203C16.1918 11.7919 16.2867 12.3954 16.2486 12.5549C16.1848 12.8248 15.6193 13.3412 15.8464 13.8087C16.0736 14.2761 16.4352 14.7257 16.8824 14.5569C17.3297 14.3881 17.6991 14.1874 17.8181 13.937C17.9371 13.6866 17.4098 12.9298 17.3888 12.7128C17.3678 12.4966 17.5653 9.68878 17.5397 9.36989C17.5086 8.98022 17.479 8.44667 16.8428 8.22656C16.2066 8.00567 13.6586 7.511 13.02 7.38733C12.2873 7.24344 11.7662 7.62767 11.6783 8.25844Z" fill="var(--fill-0, #FFDC5D)"/>
<path id="Vector_13" d="M12.6132 4.85411C12.8349 4.54611 13.0006 4.18678 13.0713 3.74656C13.3249 2.17467 12.3713 0.713222 10.9418 0.483C9.51222 0.252778 7.60744 1.36967 7.70467 2.95944C7.80189 4.53756 8.75933 6.83744 10.0691 6.39955C10.4144 6.28367 10.7606 6.15767 11.088 6.00911C11.2358 6.17167 11.3594 6.811 11.3198 7.364C11.2179 8.77178 13.1577 8.85189 13.258 7.44178C13.3389 6.32567 12.621 5.64356 12.6132 4.85411Z" fill="var(--fill-0, #FFDC5D)"/>
<path id="Vector_14" d="M8.27322 0.938C10.1632 -0.311111 11.4613 -0.149333 12.5619 0.684444C13.6547 1.51278 13.7488 3.13289 13.4781 4.17278C13.2074 5.21267 12.9057 5.16444 12.9057 5.16444C12.9057 5.16444 11.487 5.52611 11.3462 4.20544C11.3019 3.78778 11.7616 3.54978 11.2389 2.94933C10.9029 2.56278 10.1827 2.779 10.1936 3.34911C10.2052 3.91844 9.91122 3.81967 9.91122 3.81967L9.01444 2.33411C9.01444 2.33411 8.27478 2.31078 7.882 2.99989C7.63544 3.43156 6.622 2.02922 8.27322 0.938Z" fill="var(--fill-0, #FFAC33)"/>
<path id="Vector_15" d="M15.1348 7.82211C14.5359 6.54344 13.5917 5.894 12.5028 6.3C9.09533 7.57167 10.6672 10.7178 11.8953 15.8293C11.8953 15.8293 14.3134 16.1786 16.8078 16.1093C16.8078 16.1093 16.576 10.8998 15.1348 7.82211Z" fill="var(--fill-0, #4289C1)"/>
<path id="Vector_16" d="M13.1756 7.98622C12.7268 7.71789 11.9537 7.51567 11.2988 8.54C10.6439 9.56433 10.3258 10.7131 10.2581 11.2358C10.1904 11.7584 9.38156 11.3882 8.55167 11.2008C7.71944 11.0126 6.66244 10.6921 6.51856 10.5863C6.27511 10.4082 6.36378 9.90656 5.79911 9.93533C5.23444 9.96411 4.95678 9.89878 4.93578 10.4191C4.91556 10.9394 4.90856 11.4606 5.10844 11.6861C5.30911 11.9117 5.985 11.7172 6.28756 11.8238C6.51078 11.9023 9.24544 13.2829 9.576 13.3926C9.97967 13.5263 10.5272 13.7231 11.018 13.1787C11.5088 12.6342 13.0853 10.29 13.4812 9.702C13.9354 9.02767 13.7713 8.34244 13.1756 7.98622Z" fill="var(--fill-0, #FFDC5D)"/>
</g>
</svg>
