<svg preserveAspectRatio="none" width="100%" height="100%" overflow="visible" style="display: block;" viewBox="0 0 26 26" fill="none" xmlns="http://www.w3.org/2000/svg">
<g id="fluent:temperature-20-filled">
<path id="Vector" d="M13.9724 9.425C13.9724 9.16641 13.8697 8.91842 13.6868 8.73557C13.504 8.55272 13.256 8.45 12.9974 8.45C12.7388 8.45 12.4908 8.55272 12.308 8.73557C12.1251 8.91842 12.0224 9.16641 12.0224 9.425L12.025 15.7885C11.4657 16.0148 11.0024 16.4285 10.7147 16.9589C10.4269 17.4892 10.3326 18.1031 10.4479 18.6954C10.5631 19.2877 10.8808 19.8214 11.3464 20.2052C11.812 20.5889 12.3966 20.7988 13 20.7988C13.6034 20.7988 14.188 20.5889 14.6536 20.2052C15.1192 19.8214 15.4369 19.2877 15.5521 18.6954C15.6674 18.1031 15.5731 17.4892 15.2853 16.9589C14.9976 16.4285 14.5343 16.0148 13.975 15.7885L13.9724 9.425ZM8.45 7.15V7.1474C8.47017 5.95484 8.95806 4.81794 9.80855 3.98172C10.659 3.14549 11.804 2.67688 12.9968 2.67688C14.1895 2.67688 15.3345 3.14549 16.1849 3.98172C17.0354 4.81794 17.5233 5.95484 17.5435 7.1474V14.5158C18.2395 15.3743 18.6781 16.4124 18.8085 17.5098C18.9389 18.6073 18.7557 19.7193 18.2802 20.7169C17.8047 21.7146 17.0563 22.5572 16.1217 23.147C15.1871 23.7369 14.1045 24.05 12.9994 24.05C11.8942 24.05 10.8116 23.7369 9.87698 23.147C8.94238 22.5572 8.19399 21.7146 7.71849 20.7169C7.24299 19.7193 7.05982 18.6073 7.1902 17.5098C7.32058 16.4124 7.75918 15.3743 8.4552 14.5158C8.4552 12.2577 8.4448 9.3418 8.4448 7.15H8.45ZM10.4 7.1474C10.3935 9.8514 10.4052 12.558 10.4052 15.2633L10.1452 15.5441C9.62798 16.1001 9.28432 16.795 9.15639 17.5435C9.02846 18.292 9.12183 19.0615 9.42504 19.7577C9.72825 20.4539 10.2281 21.0465 10.8633 21.4626C11.4984 21.8788 12.2413 22.1005 13.0006 22.1005C13.76 22.1005 14.5029 21.8788 15.138 21.4626C15.7732 21.0465 16.273 20.4539 16.5763 19.7577C16.8795 19.0615 16.9728 18.292 16.8449 17.5435C16.717 16.795 16.3733 16.1001 15.8561 15.5441L15.5948 15.2633V7.1474C15.5948 6.45853 15.3211 5.79787 14.834 5.31076C14.3469 4.82365 13.6863 4.55 12.9974 4.55C12.3085 4.55 11.6479 4.82365 11.1608 5.31076C10.6737 5.79787 10.4 6.45853 10.4 7.1474Z" fill="var(--fill-0, white)" fill-opacity="0.8"/>
</g>
</svg>
