<svg width="26" height="26" viewBox="0 0 26 26" fill="none" xmlns="http://www.w3.org/2000/svg">
<path d="M13.9723 9.42499C13.9723 9.16641 13.8696 8.91841 13.6868 8.73557C13.5039 8.55272 13.2559 8.45 12.9973 8.45C12.7388 8.45 12.4908 8.55272 12.3079 8.73557C12.1251 8.91841 12.0223 9.16641 12.0223 9.42499L12.0249 15.7885C11.4656 16.0148 11.0024 16.4285 10.7146 16.9589C10.4269 17.4892 10.3326 18.1031 10.4478 18.6954C10.5631 19.2877 10.8807 19.8214 11.3464 20.2052C11.812 20.5889 12.3966 20.7988 12.9999 20.7988C13.6033 20.7988 14.1879 20.5889 14.6535 20.2052C15.1192 19.8214 15.4368 19.2877 15.5521 18.6954C15.6673 18.1031 15.573 17.4892 15.2853 16.9589C14.9975 16.4285 14.5343 16.0148 13.9749 15.7885L13.9723 9.42499ZM8.44995 7.15V7.1474C8.47011 5.95484 8.95801 4.81794 9.8085 3.98171C10.659 3.14549 11.804 2.67688 12.9967 2.67688C14.1894 2.67688 15.3344 3.14549 16.1849 3.98171C17.0354 4.81794 17.5233 5.95484 17.5434 7.1474V14.5158C18.2395 15.3743 18.6781 16.4124 18.8084 17.5098C18.9388 18.6073 18.7557 19.7193 18.2802 20.7169C17.8047 21.7146 17.0563 22.5571 16.1217 23.147C15.1871 23.7369 14.1045 24.05 12.9993 24.05C11.8941 24.05 10.8115 23.7369 9.87693 23.147C8.94233 22.5571 8.19394 21.7146 7.71844 20.7169C7.24293 19.7193 7.05976 18.6073 7.19015 17.5098C7.32053 16.4124 7.75913 15.3743 8.45515 14.5158C8.45515 12.2577 8.44475 9.34179 8.44475 7.15H8.44995ZM10.3999 7.1474C10.3934 9.8514 10.4051 12.558 10.4051 15.2633L10.1451 15.5441C9.62793 16.1001 9.28427 16.795 9.15634 17.5435C9.02841 18.292 9.12178 19.0615 9.42499 19.7577C9.7282 20.4539 10.2281 21.0465 10.8632 21.4626C11.4984 21.8788 12.2412 22.1005 13.0006 22.1005C13.76 22.1005 14.5028 21.8788 15.138 21.4626C15.7731 21.0465 16.273 20.4539 16.5762 19.7577C16.8794 19.0615 16.9728 18.292 16.8449 17.5435C16.7169 16.795 16.3733 16.1001 15.856 15.5441L15.5947 15.2633V7.1474C15.5947 6.45852 15.3211 5.79786 14.834 5.31076C14.3469 4.82365 13.6862 4.55 12.9973 4.55C12.3085 4.55 11.6478 4.82365 11.1607 5.31076C10.6736 5.79786 10.3999 6.45852 10.3999 7.1474Z" fill="#8BD7AA"/>
</svg>
