<svg preserveAspectRatio="none" width="100%" height="100%" overflow="visible" style="display: block;" viewBox="0 0 81 81" fill="none" xmlns="http://www.w3.org/2000/svg">
<g id="twemoji:sun" clip-path="url(#clip0_0_12)">
<path id="Vector" d="M36 4.5C36 4.5 36 0 40.5 0C45 0 45 4.5 45 4.5V9C45 9 45 13.5 40.5 13.5C36 13.5 36 9 36 9V4.5ZM76.5 36C76.5 36 81 36 81 40.5C81 45 76.5 45 76.5 45H72C72 45 67.5 45 67.5 40.5C67.5 36 72 36 72 36H76.5ZM9 36C9 36 13.5 36 13.5 40.5C13.5 45 9 45 9 45H4.5C4.5 45 0 45 0 40.5C0 36 4.5 36 4.5 36H9ZM20.5223 16.4093C20.5223 16.4093 23.7038 19.5908 20.5223 22.7723C17.3408 25.9538 14.1593 22.7723 14.1593 22.7723L10.9755 19.593C10.9755 19.593 7.794 16.4115 10.9755 13.2278C14.1592 10.0463 17.3407 13.2278 17.3407 13.2278L20.5223 16.4093ZM67.7723 63.6592C67.7723 63.6592 70.9538 66.8408 67.7723 70.0223C64.5908 73.2038 61.4092 70.0223 61.4092 70.0223L58.2277 66.8408C58.2277 66.8408 55.0462 63.6592 58.2277 60.4777C61.4092 57.2962 64.5908 60.4777 64.5908 60.4777L67.7723 63.6592ZM66.843 22.7723C66.843 22.7723 63.6615 25.9538 60.48 22.7723C57.2985 19.5908 60.48 16.4093 60.48 16.4093L63.6615 13.2278C63.6615 13.2278 66.843 10.0463 70.0245 13.2278C73.206 16.4093 70.0245 19.5907 70.0245 19.5907L66.843 22.7723ZM19.593 70.0223C19.593 70.0223 16.4115 73.2038 13.23 70.0223C10.0485 66.8408 13.23 63.6592 13.23 63.6592L16.4115 60.4777C16.4115 60.4777 19.593 57.2962 22.7745 60.4777C25.956 63.6592 22.7745 66.8408 22.7745 66.8408L19.593 70.0223ZM36 72C36 72 36 67.5 40.5 67.5C45 67.5 45 72 45 72V76.5C45 76.5 45 81 40.5 81C36 81 36 76.5 36 76.5V72Z" fill="var(--fill-0, #FFBD03)"/>
<path id="Vector_2" d="M40.5 63C52.9264 63 63 52.9264 63 40.5C63 28.0736 52.9264 18 40.5 18C28.0736 18 18 28.0736 18 40.5C18 52.9264 28.0736 63 40.5 63Z" fill="url(#paint0_linear_0_12)"/>
</g>
<defs>
<linearGradient id="paint0_linear_0_12" x1="24.1791" y1="25.9925" x2="57.4254" y2="56.2164" gradientUnits="userSpaceOnUse">
<stop stop-color="#F1C861"/>
<stop offset="1" stop-color="#EDAC39"/>
</linearGradient>
<clipPath id="clip0_0_12">
<rect width="81" height="81" fill="white"/>
</clipPath>
</defs>
</svg>
