<svg width="26" height="26" viewBox="0 0 26 26" fill="none" xmlns="http://www.w3.org/2000/svg">
<path d="M11.9167 1.08331L14.5059 4.78831C13.7042 4.49581 12.8267 4.33331 11.9167 4.33331C11.0067 4.33331 10.1292 4.49581 9.32753 4.78831L11.9167 1.08331ZM2.53503 6.49998L7.0417 6.12081C6.36933 6.68874 5.79793 7.36636 5.3517 8.12498C4.87503 8.92665 4.6042 9.74998 4.45253 10.6058L2.53503 6.49998ZM2.5567 17.3333L4.46337 13.2491C4.78174 14.9961 5.69228 16.58 7.0417 17.7341L2.5567 17.3333ZM21.2875 6.49998L19.37 10.6058C19.0635 8.85154 18.151 7.26048 16.7917 6.10998L21.2875 6.49998ZM24.9167 14.0833H22.75C22.75 16.3041 21.905 18.525 20.215 20.215C19.411 21.0215 18.4552 21.6607 17.4028 22.0958C16.3504 22.5309 15.2222 22.7532 14.0834 22.75V24.9166C16.8567 24.9166 19.63 23.8333 21.7425 21.7425C23.855 19.6516 24.9167 16.8566 24.9167 14.0833ZM20.5834 14.0833H18.4167C18.4167 15.1666 17.9942 16.3041 17.1492 17.1491C16.3042 17.9941 15.1667 18.4166 14.0834 18.4166V20.5833C14.9374 20.5847 15.7832 20.4176 16.5725 20.0914C17.3618 19.7653 18.0789 19.2866 18.6827 18.6827C19.2866 18.0788 19.7653 17.3617 20.0915 16.5724C20.4176 15.7832 20.5848 14.9373 20.5834 14.0833ZM11.9167 8.66665C13.7042 8.66665 15.1667 10.1291 15.1667 11.9166C15.1667 13.7041 13.7042 15.1666 11.9167 15.1666C10.1292 15.1666 8.6667 13.7041 8.6667 11.9166C8.6667 10.1291 10.1292 8.66665 11.9167 8.66665ZM11.9167 6.49998C8.9267 6.49998 6.50003 8.92665 6.50003 11.9166C6.50003 14.9066 8.9267 17.3333 11.9167 17.3333C14.9067 17.3333 17.3334 14.9066 17.3334 11.9166C17.3334 8.92665 14.9067 6.49998 11.9167 6.49998Z" fill="#F1C861"/>
</svg>
