<svg width="26" height="26" viewBox="0 0 26 26" fill="none" xmlns="http://www.w3.org/2000/svg">
<path d="M20.4014 14.8027C20.6383 15.2852 20.8161 15.7845 20.9346 16.3008C21.0531 16.8171 21.1165 17.3418 21.125 17.875C21.125 18.6198 21.0277 19.3392 20.833 20.0332C20.6383 20.7272 20.3675 21.3747 20.0205 21.9756C19.6735 22.5765 19.2503 23.1224 18.751 23.6133C18.2516 24.1042 17.7015 24.5273 17.1006 24.8828C16.4997 25.2383 15.8522 25.5133 15.1582 25.708C14.4642 25.9027 13.7448 26 13 26C12.2552 26 11.5358 25.9027 10.8418 25.708C10.1478 25.5133 9.50033 25.2425 8.89941 24.8955C8.2985 24.5485 7.7526 24.1253 7.26172 23.626C6.77083 23.1266 6.34766 22.5765 5.99219 21.9756C5.63672 21.3747 5.36165 20.7272 5.16699 20.0332C4.97233 19.3392 4.875 18.6198 4.875 17.875C4.875 17.3418 4.93424 16.8171 5.05273 16.3008C5.17122 15.7845 5.35319 15.2852 5.59863 14.8027L13 0L20.4014 14.8027ZM13 24.375C13.8971 24.375 14.7393 24.2057 15.5264 23.8672C16.3135 23.5286 17.0033 23.0674 17.5957 22.4834C18.1882 21.8994 18.6536 21.2096 18.9922 20.4141C19.3307 19.6185 19.5 18.7721 19.5 17.875C19.5 17.4688 19.4535 17.0667 19.3604 16.6689C19.2673 16.2712 19.1276 15.8903 18.9414 15.5264L13 3.63086L7.05859 15.5264C6.8724 15.8903 6.73275 16.2712 6.63965 16.6689C6.54655 17.0667 6.5 17.4688 6.5 17.875C6.5 18.7721 6.66927 19.6143 7.00781 20.4014C7.34635 21.1885 7.80762 21.8783 8.3916 22.4707C8.97559 23.0632 9.66536 23.5286 10.4609 23.8672C11.2565 24.2057 12.1029 24.375 13 24.375Z" fill="#42ADE2"/>
</svg>
