<svg preserveAspectRatio="none" width="100%" height="100%" overflow="visible" style="display: block;" viewBox="0 0 30 30" fill="none" xmlns="http://www.w3.org/2000/svg">
<g id="mdi:bike" clip-path="url(#clip0_0_30)">
<path id="Vector" d="M6.25 25.625C5.08968 25.625 3.97688 25.1641 3.15641 24.3436C2.33594 23.5231 1.875 22.4103 1.875 21.25C1.875 20.0897 2.33594 18.9769 3.15641 18.1564C3.97688 17.3359 5.08968 16.875 6.25 16.875C7.41032 16.875 8.52312 17.3359 9.34359 18.1564C10.1641 18.9769 10.625 20.0897 10.625 21.25C10.625 22.4103 10.1641 23.5231 9.34359 24.3436C8.52312 25.1641 7.41032 25.625 6.25 25.625ZM6.25 15C4.5924 15 3.00269 15.6585 1.83058 16.8306C0.65848 18.0027 0 19.5924 0 21.25C0 22.9076 0.65848 24.4973 1.83058 25.6694C3.00269 26.8415 4.5924 27.5 6.25 27.5C7.9076 27.5 9.49731 26.8415 10.6694 25.6694C11.8415 24.4973 12.5 22.9076 12.5 21.25C12.5 19.5924 11.8415 18.0027 10.6694 16.8306C9.49731 15.6585 7.9076 15 6.25 15ZM18.5 12.5H23.75V10.25H19.75L17.325 6.1625C16.9625 5.5375 16.25 5.125 15.5 5.125C14.9125 5.125 14.375 5.3625 14 5.75L9.375 10.3625C8.9875 10.75 8.75 11.25 8.75 11.875C8.75 12.6625 9.1625 13.325 9.8125 13.7125L14 16.25V22.5H16.25V14.375L13.4375 12.3125L16.3375 9.375M23.75 25.625C22.5897 25.625 21.4769 25.1641 20.6564 24.3436C19.8359 23.5231 19.375 22.4103 19.375 21.25C19.375 20.0897 19.8359 18.9769 20.6564 18.1564C21.4769 17.3359 22.5897 16.875 23.75 16.875C24.9103 16.875 26.0231 17.3359 26.8436 18.1564C27.6641 18.9769 28.125 20.0897 28.125 21.25C28.125 22.4103 27.6641 23.5231 26.8436 24.3436C26.0231 25.1641 24.9103 25.625 23.75 25.625ZM23.75 15C22.0924 15 20.5027 15.6585 19.3306 16.8306C18.1585 18.0027 17.5 19.5924 17.5 21.25C17.5 22.9076 18.1585 24.4973 19.3306 25.6694C20.5027 26.8415 22.0924 27.5 23.75 27.5C24.5708 27.5 25.3835 27.3383 26.1418 27.0242C26.9001 26.7102 27.5891 26.2498 28.1694 25.6694C28.7498 25.0891 29.2102 24.4001 29.5242 23.6418C29.8383 22.8835 30 22.0708 30 21.25C30 20.4292 29.8383 19.6165 29.5242 18.8582C29.2102 18.0999 28.7498 17.4109 28.1694 16.8306C27.5891 16.2502 26.9001 15.7898 26.1418 15.4758C25.3835 15.1617 24.5708 15 23.75 15ZM20 6C21.25 6 22.25 5 22.25 3.75C22.25 2.5 21.25 1.5 20 1.5C18.75 1.5 17.75 2.5 17.75 3.75C17.75 5 18.75 6 20 6Z" fill="var(--fill-0, #A09DFF)"/>
</g>
<defs>
<clipPath id="clip0_0_30">
<rect width="30" height="30" fill="white"/>
</clipPath>
</defs>
</svg>
